<svg width="61" height="53" viewBox="0 0 61 53" fill="none" xmlns="http://www.w3.org/2000/svg">
<path d="M58.2296 0.199951C59.9996 0.829951 60.5395 2.13994 60.5295 3.93994C60.5295 17.0699 60.5295 30.1901 60.5295 43.3101C60.6162 45.0684 60.1637 46.8111 59.2326 48.3052C58.3015 49.7992 56.9363 50.9733 55.3196 51.67C54.2493 52.1696 53.0806 52.4225 51.8995 52.41H28.6195C27.875 52.4307 27.1513 52.1631 26.5993 51.6631C26.0473 51.1631 25.7096 50.4692 25.6567 49.7263C25.6038 48.9834 25.8398 48.2487 26.3154 47.6755C26.7911 47.1024 27.4696 46.735 28.2095 46.65C28.5014 46.6132 28.7954 46.5964 29.0895 46.6C36.4995 46.6 43.9096 46.6 51.3196 46.6C51.7736 46.6325 52.2293 46.5673 52.6559 46.4086C53.0825 46.2499 53.47 46.0014 53.7923 45.6801C54.1147 45.3587 54.3642 44.9719 54.5242 44.5458C54.6841 44.1196 54.7508 43.6641 54.7195 43.21C54.6695 31.04 54.7195 18.8599 54.7195 6.68994C54.7195 6.07994 54.5596 5.95997 53.9796 5.96997C45.6196 5.96997 37.2562 5.96997 28.8896 5.96997C28.4468 6.01232 28.0003 5.95268 27.5842 5.79553C27.1682 5.63839 26.7937 5.38793 26.4895 5.06348C26.1853 4.73902 25.9595 4.34915 25.8295 3.92383C25.6995 3.49851 25.6687 3.04906 25.7395 2.60999C25.8353 2.01737 26.1066 1.46717 26.5184 1.0304C26.9302 0.593625 27.4636 0.290422 28.0495 0.160034L58.2296 0.199951Z" fill="white"/>
<path d="M0.679871 26.0001C0.889871 25.9101 0.839882 25.6901 0.909882 25.5301C1.10218 24.9795 1.46218 24.503 1.9393 24.1675C2.41642 23.8321 2.98668 23.6547 3.56989 23.6601C4.83989 23.6601 6.10987 23.6601 7.36987 23.6601H25.4499C25.5199 23.4001 25.2999 23.33 25.1899 23.21C24.1399 22.15 23.0799 21.1001 22.0199 20.0401C21.716 19.7808 21.4688 19.4618 21.2936 19.1028C21.1184 18.7439 21.019 18.3527 21.0016 17.9537C20.9841 17.5546 21.049 17.1564 21.1921 16.7835C21.3353 16.4106 21.5536 16.0711 21.8336 15.7863C22.1136 15.5015 22.4493 15.2775 22.8196 15.128C23.19 14.9785 23.5872 14.9068 23.9865 14.9174C24.3857 14.9281 24.7785 15.0208 25.1404 15.1899C25.5023 15.3589 25.8255 15.6007 26.0899 15.9001C28.9432 18.7334 31.7799 21.5701 34.5999 24.4101C34.9014 24.6802 35.1425 25.0108 35.3076 25.3804C35.4727 25.75 35.5581 26.1503 35.5581 26.5551C35.5581 26.9599 35.4727 27.3601 35.3076 27.7297C35.1425 28.0993 34.9014 28.4299 34.5999 28.7L26.1399 37.1601C25.8667 37.4319 25.5427 37.6473 25.1863 37.7939C24.83 37.9405 24.4482 38.0155 24.0628 38.0146C23.6774 38.0137 23.296 37.9368 22.9404 37.7885C22.5847 37.6402 22.2617 37.4232 21.9899 37.1501C21.718 36.8769 21.5027 36.5529 21.356 36.1965C21.2094 35.8401 21.1344 35.4583 21.1354 35.0729C21.1363 34.6876 21.2132 34.3062 21.3615 33.9505C21.5098 33.5948 21.7267 33.2719 21.9999 33.0001C23.1599 31.8201 24.3299 30.66 25.5099 29.48C25.275 29.3623 25.0073 29.3271 24.7499 29.3801C18.0399 29.3801 11.3299 29.3301 4.62988 29.3801C2.70988 29.3801 1.30988 28.9101 0.629883 27.0101L0.679871 26.0001Z" fill="white"/>
</svg>
