<svg width="33" height="16" viewBox="0 0 33 16" fill="none" xmlns="http://www.w3.org/2000/svg">
<path d="M30.6399 6.21998H17.2799C17.1942 6.22258 17.1128 6.25847 17.053 6.32008C16.9933 6.38169 16.9599 6.46425 16.9599 6.55006C16.9568 6.63542 16.986 6.71873 17.0416 6.78358C17.0972 6.84843 17.1751 6.89004 17.2599 6.90004H17.4999C21.9099 6.90004 26.3299 6.90004 30.7399 6.90004C30.9811 6.86932 31.226 6.90531 31.4482 7.00404C31.6703 7.10277 31.8612 7.2604 31.9999 7.45997C32.2099 7.74997 32.2399 7.91006 31.9999 8.17006L29.8899 10.6C29.8506 10.6641 29.7955 10.7171 29.7298 10.7538C29.6641 10.7905 29.5902 10.8098 29.5149 10.8098C29.4397 10.8098 29.3657 10.7905 29.3001 10.7538C29.2344 10.7171 29.1793 10.6641 29.1399 10.6C28.7499 10.16 28.3599 9.72005 27.9599 9.29005C27.9226 9.22793 27.8698 9.17645 27.8067 9.14076C27.7437 9.10507 27.6724 9.08632 27.5999 9.08632C27.5275 9.08632 27.4562 9.10507 27.3931 9.14076C27.33 9.17645 27.2773 9.22793 27.2399 9.29005L26.0599 10.6C25.7999 10.9 25.5599 10.9 25.2899 10.6L24.1299 9.30006C24.0926 9.23346 24.0381 9.17801 23.9722 9.13942C23.9063 9.10083 23.8313 9.08046 23.7549 9.08046C23.6786 9.08046 23.6036 9.10083 23.5377 9.13942C23.4718 9.17801 23.4173 9.23346 23.3799 9.30006L22.1999 10.62C22.1601 10.6819 22.1053 10.7329 22.0407 10.7682C21.976 10.8035 21.9036 10.8219 21.8299 10.8219C21.7563 10.8219 21.6838 10.8035 21.6192 10.7682C21.5545 10.7329 21.4998 10.6819 21.4599 10.62L20.2799 9.30006C19.9999 8.99006 19.7899 8.99006 19.4999 9.30006L18.1599 10.65C18.105 10.7086 18.0383 10.755 17.9642 10.786C17.8901 10.817 17.8102 10.832 17.7299 10.83H15.8999C15.8294 10.8236 15.7588 10.8407 15.6991 10.8787C15.6394 10.9167 15.594 10.9735 15.5699 11.0401C14.8412 12.6436 13.5854 13.9492 12.0114 14.7398C10.4375 15.5303 8.64027 15.7581 6.91884 15.3853C5.19741 15.0124 3.65553 14.0615 2.54971 12.6906C1.4439 11.3196 0.84082 9.61133 0.84082 7.84999C0.84082 6.08865 1.4439 4.38048 2.54971 3.00953C3.65553 1.63859 5.19741 0.687534 6.91884 0.31471C8.64027 -0.0581137 10.4375 0.169771 12.0114 0.96034C13.5854 1.75091 14.8412 3.05654 15.5699 4.66005C15.5881 4.72155 15.6268 4.77489 15.6796 4.81129C15.7323 4.84769 15.796 4.86491 15.8599 4.86H29.2399C29.3097 4.85208 29.3804 4.85864 29.4475 4.87929C29.5146 4.89993 29.5767 4.93422 29.6299 4.97999L30.8099 6.25001L30.6399 6.21998ZM4.28993 9.80006C4.68549 9.80006 5.07218 9.68267 5.40108 9.4629C5.72998 9.24314 5.98632 8.93077 6.1377 8.56532C6.28907 8.19987 6.32868 7.79776 6.25151 7.4098C6.17434 7.02184 5.98385 6.66546 5.70415 6.38576C5.42444 6.10605 5.06808 5.91556 4.68011 5.83839C4.29215 5.76122 3.89002 5.80091 3.52457 5.95228C3.15911 6.10366 2.84676 6.35996 2.627 6.68886C2.40724 7.01775 2.28993 7.4045 2.28993 7.80006C2.28993 8.33049 2.50066 8.83917 2.87573 9.21425C3.25081 9.58932 3.7595 9.80006 4.28993 9.80006Z" fill="#5B5C5E"/>
</svg>
