<svg width="79" height="42" viewBox="0 0 79 42" fill="none" xmlns="http://www.w3.org/2000/svg">
<path d="M79.0001 3.60002C76.5301 8.46002 73.1801 12.78 70.2601 17.36C67.6401 21.47 64.8201 25.46 62.2601 29.59C60.8981 31.6762 58.8859 33.2547 56.5355 34.081C54.1851 34.9072 51.6278 34.935 49.2601 34.16C47.9001 33.68 46.5201 33.25 45.1901 32.71C44.8721 32.5615 44.5167 32.5126 44.1705 32.5697C43.8243 32.6268 43.5034 32.7873 43.25 33.03C40.07 35.54 36.8601 38.03 33.6601 40.52C33.3347 40.8264 32.9476 41.0599 32.5248 41.2047C32.1019 41.3495 31.653 41.4024 31.2081 41.3598C30.7632 41.3172 30.3325 41.1801 29.9448 40.9577C29.5571 40.7352 29.2214 40.4326 28.9601 40.07C28.4663 39.4679 28.0683 38.7933 27.78 38.07C25.4067 32.87 23.04 27.67 20.68 22.47C20.24 21.47 20.0401 21.39 19 21.47C16.1803 21.6822 13.3515 21.2016 10.76 20.07C8.34004 19 6.00006 17.84 3.60006 16.7C2.77054 16.3063 2.04455 15.7242 1.48005 15C0.0600455 13.2 0.620044 11.37 2.40004 10.19C3.76076 9.43493 5.27595 9.00056 6.83005 8.92002C12.2567 8.25335 17.6834 7.55335 23.1101 6.82002L38.2201 4.91002L53.31 3.00002C57.95 2.40002 62.5901 1.82002 67.2301 1.21002C69.7801 0.880018 72.32 0.500019 74.86 0.130019C74.91 0.130019 74.9601 0.0600195 75.0101 0.0200195H76.4701C77.0776 0.127468 77.6406 0.40989 78.09 0.832651C78.5395 1.25541 78.8557 1.80014 79.0001 2.40002V3.60002ZM72.84 5.69002L72.4701 5.85002L38.3501 24.16C37.9801 24.36 37.6301 24.59 37.2701 24.81C36.9101 25.03 36.9401 25.26 37.2701 25.43C37.6001 25.6 38.19 25.86 38.67 26.04C42.45 27.4 46.2401 28.78 50.0401 30.12C51.6162 30.7704 53.3742 30.8301 54.9909 30.2881C56.6075 29.7462 57.9743 28.639 58.84 27.17C61.26 23.51 63.6734 19.8434 66.08 16.17L73.0001 5.79002V5.64002L72.84 5.69002ZM52.06 7.42002V7.28002L6.06005 13.18C7.59005 14.06 9.13005 14.79 10.6601 15.55C12.7209 16.5985 14.9739 17.2155 17.2814 17.3634C19.5889 17.5112 21.9023 17.1868 24.0801 16.41C31.9101 13.85 39.7601 11.41 47.6101 8.88002L52.06 7.42002ZM31.1101 35.62C31.68 32.29 32.2201 29.17 32.5201 26.02C32.5893 24.8482 32.982 23.7185 33.6546 22.7564C34.3272 21.7943 35.2533 21.0375 36.3301 20.57C41.2201 18.06 46.0201 15.39 50.8501 12.79L53.2201 11.52C53.149 11.4832 53.0701 11.464 52.99 11.464C52.91 11.464 52.8311 11.4832 52.7601 11.52C43.4267 14.5 34.0934 17.47 24.76 20.43C24.26 20.59 24.34 20.79 24.5 21.14C25.9534 24.3334 27.3967 27.52 28.8301 30.7L31.1101 35.62ZM35.5501 33.84L39.5501 30.71C38.4801 30.32 37.55 29.99 36.62 29.63C36.35 29.53 36.19 29.55 36.14 29.85C36 31.12 35.7801 32.39 35.5501 33.84Z" fill="white"/>
</svg>
