<svg width="232" height="124" viewBox="0 0 232 124" fill="none" xmlns="http://www.w3.org/2000/svg">
<path d="M231.42 11.63C224.11 26 214.23 38.74 205.61 52.28C197.88 64.43 189.53 76.19 181.89 88.38C174.39 100.33 157.96 107.01 143.57 101.88C139.57 100.46 135.49 99.21 131.57 97.6C130.635 97.1562 129.587 97.0075 128.565 97.1736C127.544 97.3397 126.597 97.8128 125.85 98.53C116.43 106 107 113.3 97.5001 120.66C92.6501 124.43 87.7501 123.93 83.6201 119.34C82.1635 117.57 80.9866 115.587 80.1301 113.46C73.1301 98.1267 66.1301 82.7733 59.1301 67.4C57.8201 64.53 57.2301 64.21 54.1301 64.4C45.8052 65.039 37.4506 63.6242 29.8001 60.28C22.7001 57.1 15.7001 53.7 8.69014 50.33C6.25078 49.1694 4.11458 47.4577 2.45015 45.33C-1.75985 39.99 -0.109859 34.59 5.16014 31.12C9.09014 28.53 13.6701 27.95 18.2301 27.37C34.2701 25.3167 50.3001 23.2533 66.3201 21.18C81.1801 19.27 96.0501 17.41 110.91 15.51C125.77 13.61 140.64 11.69 155.5 9.78C169.19 8.03 182.89 6.30999 196.58 4.50999C204.11 3.50999 211.58 2.40001 219.12 1.32001C219.28 1.32001 219.41 1.11001 219.55 0.990005H224C227.83 1.93001 230.45 4.16001 231.47 8.07001L231.42 11.63ZM213.22 17.81C212.86 17.97 212.49 18.1 212.15 18.28L111.38 72.35C110.29 72.94 109.25 73.62 108.2 74.28C107.15 74.94 107.2 75.6 108.33 76.1C109.7 76.73 111.06 77.38 112.47 77.89C123.65 81.89 134.83 85.98 146.04 89.94C156.54 93.65 165.9 90.49 172.04 81.24C179.193 70.44 186.323 59.6267 193.43 48.8C200.163 38.58 206.88 28.3533 213.58 18.12L213.65 17.66L213.22 17.81ZM151.85 22.94L151.76 22.5L15.7601 39.93C20.2901 42.52 24.8301 44.68 29.3301 46.93C42.1901 53.34 55.3301 53.93 68.9601 49.48C92.0701 41.92 115.28 34.64 138.44 27.24L151.85 22.94ZM90.0001 106.18C91.6701 96.37 93.2802 87.18 94.1702 77.84C94.9002 70.15 98.5901 65.25 105.42 61.74C119.85 54.35 134.02 46.46 148.3 38.74C150.58 37.51 152.87 36.29 155.3 35C155.094 34.8777 154.862 34.8083 154.623 34.7978C154.384 34.7874 154.146 34.8362 153.93 34.94C126.423 43.72 98.9102 52.49 71.3902 61.25C69.9101 61.72 70.1501 62.31 70.6201 63.35C74.9001 72.7367 79.1601 82.14 83.4001 91.56L90.0001 106.18ZM103.12 101L115 91.7C111.85 90.55 109.08 89.56 106.34 88.51C105.55 88.21 105.08 88.27 104.95 89.17C104.35 92.91 103.78 96.65 103.12 101Z" fill="url(#paint0_linear_1_7854)"/>
<defs>
<linearGradient id="paint0_linear_1_7854" x1="0.140147" y1="62.09" x2="231.42" y2="62.09" gradientUnits="userSpaceOnUse">
<stop stop-color="#9BCA06"/>
<stop offset="1" stop-color="#63C810"/>
</linearGradient>
</defs>
</svg>
