<svg width="28" height="33" viewBox="0 0 28 33" fill="none" xmlns="http://www.w3.org/2000/svg">
<path d="M13.7297 15.24C12.2435 15.24 10.7908 14.799 9.55531 13.9729C8.31987 13.1468 7.35729 11.9727 6.78947 10.5993C6.22165 9.22583 6.0741 7.71482 6.3655 6.25748C6.6569 4.80014 7.37415 3.462 8.42645 2.41251C9.47874 1.36301 10.8188 0.649359 12.2769 0.361847C13.735 0.0743345 15.2456 0.225912 16.6175 0.797394C17.9895 1.36888 19.161 2.33453 19.9838 3.57217C20.8066 4.80982 21.2437 6.26379 21.2397 7.74997C21.241 8.73563 21.0475 9.71183 20.6703 10.6225C20.2932 11.5331 19.7397 12.3602 19.0418 13.0562C18.3439 13.7523 17.5153 14.3035 16.6037 14.6783C15.6921 15.053 14.7154 15.2439 13.7297 15.24Z" fill="#5B5C5E"/>
<path d="M13.2197 32.47C10.2677 32.4802 7.33558 31.9865 4.54971 31.01C3.24652 30.5761 2.07838 29.8111 1.15971 28.79C0.580029 28.1301 0.266374 27.2783 0.279705 26.4C0.271058 24.2255 0.792963 22.0816 1.80017 20.1543C2.80737 18.227 4.26947 16.5745 6.0597 15.34C6.09066 15.3024 6.12959 15.272 6.17369 15.2511C6.21778 15.2303 6.26594 15.2195 6.31471 15.2195C6.36348 15.2195 6.41164 15.2303 6.45573 15.2511C6.49982 15.272 6.53876 15.3024 6.56971 15.34C8.49185 17.1672 11.0389 18.1918 13.6908 18.2049C16.3428 18.2179 18.8997 17.2182 20.8397 15.41C20.9997 15.26 21.1197 15.09 21.3997 15.29C23.2201 16.5385 24.7008 18.2208 25.7082 20.1849C26.7156 22.149 27.2179 24.3331 27.1697 26.54C27.1508 27.1783 26.9793 27.8028 26.6696 28.3612C26.36 28.9197 25.9211 29.3959 25.3897 29.75C23.817 30.8512 22.0091 31.5703 20.1097 31.85C17.8392 32.2843 15.5312 32.492 13.2197 32.47Z" fill="#5B5C5E"/>
</svg>
