<svg width="34" height="43" viewBox="0 0 34 43" fill="none" xmlns="http://www.w3.org/2000/svg">
<path d="M21.2697 0.039978H3.22969C1.68329 0.039978 0.429688 1.29363 0.429688 2.84003V39.42C0.429688 40.9664 1.68329 42.22 3.22969 42.22H21.2697C22.8161 42.22 24.0697 40.9664 24.0697 39.42V2.84003C24.0697 1.29363 22.8161 0.039978 21.2697 0.039978Z" fill="#5B5C5E"/>
<path d="M15.0504 1.40002H9.4404C9.28024 1.40002 9.15039 1.52984 9.15039 1.69V1.75C9.15039 1.91016 9.28024 2.03998 9.4404 2.03998H15.0504C15.2106 2.03998 15.3404 1.91016 15.3404 1.75V1.69C15.3404 1.52984 15.2106 1.40002 15.0504 1.40002Z" fill="#FFFFF9"/>
<path d="M14.2197 39.48C14.2197 39.0844 14.1024 38.6977 13.8827 38.3688C13.6629 38.0399 13.3506 37.7836 12.9851 37.6322C12.6196 37.4809 12.2175 37.4412 11.8296 37.5184C11.4416 37.5956 11.0852 37.7861 10.8055 38.0658C10.5258 38.3455 10.3353 38.7019 10.2582 39.0898C10.181 39.4778 10.2206 39.8799 10.372 40.2453C10.5233 40.6108 10.7797 40.9232 11.1086 41.1429C11.4375 41.3627 11.8242 41.48 12.2197 41.48C12.7502 41.48 13.2589 41.2693 13.6339 40.8942C14.009 40.5191 14.2197 40.0104 14.2197 39.48Z" fill="#FFFFF9"/>
<path d="M21.7002 3.32001H2.79022C2.76261 3.32001 2.74023 3.34238 2.74023 3.37V36.49C2.74023 36.5176 2.76261 36.54 2.79022 36.54H21.7002C21.7278 36.54 21.7502 36.5176 21.7502 36.49V3.37C21.7502 3.34238 21.7278 3.32001 21.7002 3.32001Z" fill="#FFFFF9"/>
<path d="M18.1597 23.01L15.9697 27.8L20.4897 24.56L18.1597 23.01Z" fill="#63C810"/>
<path d="M23.2901 25.76C29.0229 25.76 33.6702 21.1127 33.6702 15.38C33.6702 9.64729 29.0229 5 23.2901 5C17.5574 5 12.9102 9.64729 12.9102 15.38C12.9102 21.1127 17.5574 25.76 23.2901 25.76Z" fill="#63C810"/>
<path d="M27.5002 16.22C27.9641 16.22 28.3401 15.8439 28.3401 15.38C28.3401 14.9161 27.9641 14.54 27.5002 14.54C27.0362 14.54 26.6602 14.9161 26.6602 15.38C26.6602 15.8439 27.0362 16.22 27.5002 16.22Z" fill="white"/>
<path d="M24.1204 15.38C24.1204 15.2139 24.0712 15.0515 23.9789 14.9134C23.8866 14.7752 23.7554 14.6676 23.6019 14.604C23.4484 14.5404 23.2795 14.5238 23.1165 14.5562C22.9536 14.5886 22.8039 14.6686 22.6865 14.786C22.569 14.9035 22.489 15.0532 22.4566 15.2162C22.4242 15.3791 22.4408 15.548 22.5044 15.7015C22.5679 15.855 22.6756 15.9862 22.8138 16.0785C22.9519 16.1708 23.1143 16.22 23.2804 16.22C23.5032 16.22 23.7169 16.1316 23.8744 15.974C24.0319 15.8165 24.1204 15.6028 24.1204 15.38Z" fill="white"/>
<path d="M19.9202 15.38C19.9202 15.2139 19.871 15.0515 19.7787 14.9134C19.6864 14.7752 19.5552 14.6676 19.4017 14.604C19.2482 14.5404 19.0793 14.5238 18.9164 14.5562C18.7534 14.5886 18.6037 14.6686 18.4863 14.786C18.3688 14.9035 18.2888 15.0532 18.2564 15.2162C18.224 15.3791 18.2406 15.548 18.3042 15.7015C18.3678 15.855 18.4754 15.9862 18.6136 16.0785C18.7517 16.1708 18.9141 16.22 19.0802 16.22C19.1906 16.22 19.2998 16.1983 19.4017 16.1561C19.5036 16.1139 19.5962 16.052 19.6742 15.974C19.7522 15.896 19.8141 15.8034 19.8563 15.7015C19.8985 15.5996 19.9202 15.4903 19.9202 15.38Z" fill="white"/>
</svg>
