<svg width="98" height="89" viewBox="0 0 98 89" fill="none" xmlns="http://www.w3.org/2000/svg">
<path d="M96.27 70.6701C94.98 68.1801 93.51 65.78 92.1 63.34L87.62 55.57C84.93 50.88 82.27 46.16 79.54 41.49C78.18 39.16 76.82 36.83 75.49 34.49C74.66 33.03 73.78 31.61 72.92 30.17C72.6816 29.6116 72.376 29.0844 72.01 28.6C72.01 28.49 71.96 28.37 71.83 28.34C71.8346 28.2968 71.8346 28.2532 71.83 28.21C69.33 23.87 66.83 19.5367 64.33 15.21C62.81 12.57 61.24 9.96 59.76 7.3C58.8072 5.38147 57.3653 3.74818 55.5797 2.56483C53.7942 1.38148 51.7281 0.689943 49.59 0.560008C47.8975 0.484789 46.205 0.708173 44.59 1.21998C43.4083 1.64396 42.3163 2.28497 41.37 3.11C39.11 4.85 37.82 7.35999 36.48 9.78999C35.93 10.79 35.35 11.79 34.79 12.79C33.54 15.04 32.18 17.23 30.9 19.45C29.9 21.27 28.9 23.12 27.81 24.95C27.15 26.09 26.4 27.19 25.81 28.36C25.05 29.8 24.24 31.22 23.39 32.6C22.39 34.15 21.55 35.75 20.64 37.32C19.55 39.17 18.49 41.0401 17.44 42.9201C16.82 44.0301 16.14 45.1 15.53 46.22C14.72 47.7 13.81 49.1101 12.96 50.5601C12.11 52.0101 11.33 53.3801 10.54 54.7901C9.12999 57.2901 7.53999 59.71 6.27999 62.26C5.77999 63.26 5.10999 64.1301 4.52999 65.0601C3.94999 65.9901 3.43999 67.18 2.84999 68.21C1.84785 69.7206 1.04457 71.354 0.459986 73.07C-0.0686871 75.2345 -0.0204151 77.4999 0.599985 79.64C1.00409 80.8871 1.54753 82.0846 2.21999 83.21C2.70515 83.9158 3.2992 84.5403 3.97999 85.0601C4.87538 85.9744 5.93347 86.7137 7.09999 87.24C8.85324 87.988 10.7441 88.3593 12.65 88.33C21.87 88.33 31.08 88.33 40.29 88.33H85.54C86.7489 88.366 87.9555 88.2004 89.11 87.84C90.6991 87.3588 92.171 86.5531 93.4327 85.4739C94.6944 84.3946 95.7184 83.0653 96.44 81.57C97.3164 79.8811 97.7596 78.001 97.73 76.0985C97.7003 74.196 97.1986 72.3308 96.27 70.6701ZM44.27 22.9C44.4 21.13 45.06 19.59 46.89 19.02C47.7661 18.6518 48.729 18.5409 49.666 18.7003C50.6029 18.8597 51.4749 19.2827 52.18 19.92C52.9195 20.702 53.3372 21.7338 53.35 22.81C53.35 23.39 53.35 23.98 53.35 24.56C53.19 28.48 52.75 32.38 52.35 36.28C51.8967 41.0667 51.44 45.8534 50.98 50.64C50.76 52.97 50.54 55.3 50.34 57.64C50.34 57.98 50.21 58.14 49.83 58.12C49.14 58.12 48.45 58.12 47.75 58.12C47.33 58.12 47.25 57.94 47.22 57.59C46.8267 53.25 46.4233 48.9166 46.01 44.59C45.53 39.52 45.01 34.45 44.55 29.39C44.2887 27.2372 44.2018 25.0668 44.29 22.9H44.27ZM48.82 72.84C47.2287 72.84 45.7026 72.2079 44.5774 71.0826C43.4521 69.9574 42.82 68.4313 42.82 66.84C42.82 65.2394 43.4558 63.7044 44.5876 62.5726C45.7194 61.4409 47.2544 60.8051 48.855 60.8051C50.4556 60.8051 51.9906 61.4409 53.1224 62.5726C54.2542 63.7044 54.89 65.2394 54.89 66.84C54.89 67.6321 54.7332 68.4165 54.4285 69.1477C54.1239 69.8789 53.6774 70.5427 53.115 71.1005C52.5525 71.6583 51.8852 72.0991 51.1514 72.3977C50.4177 72.6963 49.6321 72.8466 48.84 72.84H48.82Z" fill="#63C810"/>
</svg>
